<?xml version="1.0" standalone="no"?>
<!DOCTYPE svg PUBLIC "-//W3C//DTD SVG 20010904//EN"
 "http://www.w3.org/TR/2001/REC-SVG-20010904/DTD/svg10.dtd">
<svg version="1.0" xmlns="http://www.w3.org/2000/svg"
 width="1207.000000pt" height="1280.000000pt" viewBox="0 0 1207.000000 1280.000000"
 preserveAspectRatio="xMidYMid meet">

<g transform="translate(0.000000,1280.000000) scale(0.100000,-0.100000)"
fill="#000000" stroke="none">
<path d="M5835 12753 c-110 -6 -439 -54 -500 -73 -33 -11 -94 -26 -135 -34
-41 -8 -133 -36 -205 -61 -71 -25 -156 -55 -188 -65 -61 -21 -99 -38 -107 -50
-3 -4 -27 -15 -53 -24 -27 -9 -63 -28 -81 -41 -18 -14 -39 -25 -47 -26 -8 0
-27 -9 -44 -19 -16 -11 -51 -31 -77 -45 -26 -13 -49 -29 -53 -35 -3 -5 -25
-19 -48 -30 -44 -21 -77 -45 -241 -168 -94 -71 -117 -92 -277 -244 -66 -63
-206 -221 -305 -345 -66 -82 -212 -303 -234 -353 -6 -14 -24 -45 -40 -70 -16
-25 -32 -58 -36 -75 -3 -16 -17 -43 -29 -60 -12 -16 -28 -48 -35 -70 -7 -22
-20 -53 -30 -70 -10 -16 -26 -57 -35 -90 -10 -33 -26 -77 -36 -97 -11 -20 -28
-76 -39 -123 -11 -47 -24 -93 -30 -102 -6 -10 -21 -76 -35 -148 -13 -71 -32
-164 -41 -205 -16 -65 -18 -128 -18 -460 -1 -336 1 -394 17 -460 10 -41 29
-136 42 -211 14 -75 32 -152 40 -172 8 -21 22 -68 30 -106 8 -38 23 -84 34
-102 11 -19 25 -56 32 -84 6 -27 22 -68 34 -90 12 -22 28 -58 35 -80 7 -22 22
-56 34 -75 11 -19 28 -53 37 -76 13 -34 62 -119 184 -318 23 -37 56 -82 100
-134 17 -19 39 -50 50 -68 27 -45 199 -239 260 -294 27 -25 61 -56 75 -70 60
-59 194 -172 220 -185 16 -8 33 -21 37 -28 11 -17 118 -97 129 -97 6 0 25 -13
44 -30 19 -16 40 -29 46 -30 6 0 29 -13 51 -29 42 -31 53 -37 218 -119 127
-64 200 -96 300 -133 78 -29 98 -36 255 -85 41 -13 120 -33 175 -44 55 -11
145 -30 200 -41 127 -26 448 -39 705 -28 194 8 286 18 385 43 33 9 100 22 148
31 48 8 95 19 105 24 9 5 55 19 102 31 47 13 105 33 130 45 25 12 61 26 80 30
38 7 128 46 232 100 37 19 72 35 78 35 6 0 30 13 53 28 23 16 56 34 74 41 18
7 37 19 44 27 6 7 34 24 62 37 29 14 62 34 74 46 12 11 26 21 32 21 5 0 27 15
49 33 22 17 61 48 87 67 120 89 305 257 403 365 130 143 203 231 221 268 8 15
18 27 22 27 4 0 18 17 30 38 12 20 35 52 51 70 15 18 28 38 28 45 0 7 9 22 19
34 11 11 31 43 44 70 14 27 33 55 41 62 9 8 16 17 16 22 0 9 74 170 91 199 29
48 49 91 49 104 0 9 11 39 24 68 32 71 116 325 116 352 0 11 14 64 30 116 17
52 30 113 30 135 0 22 7 78 15 125 47 262 48 588 4 855 -5 33 -14 98 -19 145
-5 47 -17 112 -28 145 -11 33 -27 96 -36 140 -9 44 -25 98 -36 120 -10 22 -24
63 -31 90 -7 28 -25 78 -41 112 -15 35 -28 68 -28 75 0 11 -40 98 -108 233
-13 28 -40 73 -58 102 -19 28 -34 55 -34 60 0 5 -13 27 -30 49 -16 21 -30 44
-30 49 0 6 -18 33 -40 60 -22 28 -40 55 -40 62 0 6 -10 19 -21 27 -12 8 -30
29 -41 48 -11 18 -26 40 -34 48 -7 8 -62 71 -122 140 -137 157 -293 303 -433
405 -22 17 -51 39 -63 50 -12 11 -56 42 -97 69 -41 26 -85 56 -99 66 -14 9
-46 28 -70 40 -25 13 -59 33 -76 46 -17 13 -36 24 -43 24 -6 0 -30 12 -52 26
-23 14 -60 32 -83 40 -22 8 -57 25 -76 37 -19 13 -55 29 -80 36 -25 6 -72 22
-105 35 -113 43 -190 68 -275 87 -47 11 -114 28 -150 38 -65 19 -86 23 -230
42 -242 33 -449 43 -645 32z"/>
<path d="M3855 5961 c-44 -22 -87 -40 -95 -41 -8 0 -42 -13 -75 -30 -33 -16
-76 -36 -95 -44 -19 -8 -46 -22 -60 -30 -14 -8 -47 -26 -75 -39 -27 -13 -59
-29 -70 -35 -11 -6 -40 -20 -65 -32 -25 -11 -74 -38 -110 -60 -36 -22 -91 -55
-124 -72 -106 -59 -142 -82 -257 -160 -63 -43 -146 -99 -185 -126 -40 -26
-103 -73 -140 -103 -38 -30 -87 -68 -108 -84 -117 -89 -157 -123 -312 -262
-198 -178 -470 -455 -569 -579 -22 -27 -46 -56 -55 -65 -8 -9 -33 -39 -55 -68
-22 -29 -53 -67 -69 -84 -16 -18 -36 -43 -44 -57 -16 -25 -78 -105 -97 -126
-5 -6 -23 -32 -39 -57 -17 -26 -34 -47 -38 -47 -4 0 -8 -6 -8 -12 0 -7 -9 -24
-21 -38 -31 -39 -113 -161 -139 -207 -13 -24 -27 -43 -31 -43 -3 0 -12 -15
-19 -32 -7 -18 -22 -43 -33 -55 -11 -13 -33 -49 -49 -80 -17 -32 -39 -76 -50
-98 -11 -22 -28 -49 -37 -60 -10 -11 -24 -36 -31 -55 -8 -19 -27 -55 -42 -79
-15 -25 -28 -49 -28 -53 0 -5 -11 -25 -24 -46 -14 -20 -32 -59 -42 -87 -9 -27
-24 -61 -33 -75 -10 -14 -23 -41 -30 -60 -15 -38 -56 -132 -101 -225 -16 -33
-37 -87 -48 -120 -36 -112 -73 -210 -86 -230 -7 -11 -21 -54 -30 -95 -10 -41
-27 -95 -37 -119 -11 -23 -25 -68 -30 -100 -6 -31 -18 -72 -27 -91 -21 -48
-41 -120 -42 -151 0 -15 -13 -69 -29 -120 -16 -52 -34 -128 -40 -169 -7 -41
-16 -76 -21 -78 -13 -5 -13 -782 -1 -782 5 0 14 -15 22 -32 37 -91 161 -206
271 -249 27 -10 60 -26 74 -35 13 -9 53 -20 87 -24 202 -25 314 -42 329 -50
24 -14 10445 -14 10484 0 16 5 83 17 149 25 66 9 145 20 175 24 30 4 81 19
113 34 32 15 61 27 66 27 28 0 211 143 211 165 0 4 8 15 19 24 10 9 24 33 32
54 7 20 17 37 21 37 4 0 8 178 8 396 0 217 -4 393 -8 390 -5 -3 -14 31 -20 75
-7 44 -25 123 -41 177 -16 53 -32 118 -36 145 -3 26 -17 71 -29 100 -13 28
-26 74 -29 101 -4 26 -18 74 -31 105 -13 31 -29 81 -36 111 -7 30 -20 69 -28
85 -20 37 -42 96 -42 112 0 7 -11 37 -25 68 -14 30 -28 69 -32 87 -3 18 -35
92 -70 164 -34 72 -63 135 -63 139 0 18 -150 322 -179 364 -10 14 -24 43 -30
63 -7 21 -17 40 -22 44 -5 3 -20 27 -34 54 -13 27 -36 65 -50 86 -14 20 -25
43 -25 51 0 8 -9 24 -21 36 -11 12 -32 42 -45 67 -40 73 -71 123 -96 154 -13
16 -32 44 -43 61 -46 74 -94 142 -109 154 -9 7 -16 18 -16 24 0 5 -26 42 -57
81 -32 39 -68 85 -80 103 -11 17 -29 40 -40 51 -10 12 -36 44 -58 73 -82 106
-255 299 -405 452 -143 146 -474 447 -538 488 -15 10 -78 58 -139 106 -155
121 -199 153 -208 153 -5 0 -19 10 -32 22 -13 12 -43 34 -67 48 -25 14 -78 49
-120 78 -41 28 -79 52 -84 52 -5 0 -26 13 -48 30 -21 16 -42 30 -46 30 -4 0
-35 17 -70 37 -35 21 -76 45 -93 55 -38 22 -252 128 -259 128 -3 0 -27 14 -53
30 -26 17 -55 30 -65 30 -10 0 -35 11 -56 24 -20 13 -55 29 -77 36 -22 6 -67
25 -101 42 -104 50 -169 48 -259 -11 -22 -14 -80 -46 -130 -69 -49 -24 -110
-54 -135 -67 -25 -12 -70 -31 -100 -40 -30 -10 -68 -26 -85 -37 -16 -10 -36
-18 -43 -18 -7 0 -48 -13 -90 -29 -102 -38 -290 -96 -377 -115 -38 -9 -94 -22
-123 -30 -28 -8 -105 -22 -170 -31 -64 -9 -155 -23 -201 -31 -243 -42 -698
-39 -966 6 -60 11 -139 22 -175 26 -99 10 -432 94 -538 135 -13 5 -31 9 -41 9
-9 0 -35 8 -57 19 -21 10 -57 24 -79 31 -22 7 -62 23 -90 35 -27 13 -68 29
-90 35 -22 7 -62 25 -90 40 -27 15 -67 32 -88 39 -20 7 -43 18 -50 24 -6 7
-37 24 -67 40 -30 15 -73 37 -94 49 -22 12 -62 23 -90 25 -43 3 -63 -3 -131
-36z"/>
</g>
</svg>
